<svg width="69.000000" height="69.000000" viewBox="0 0 69 69" fill="none" xmlns="http://www.w3.org/2000/svg" xmlns:xlink="http://www.w3.org/1999/xlink">
	<desc>
			Created with Pixso.
	</desc>
	<defs/>
	<path id="Oval" d="M34.5 69C53.5537 69 69 53.5538 69 34.5C69 15.4462 53.5537 0 34.5 0C15.4463 0 0 15.4462 0 34.5C0 53.5538 15.4463 69 34.5 69Z" fill="#5454D4" fill-opacity="0.100000" fill-rule="evenodd"/>
	<path id="Oval" d="M69 34.5C69 15.4462 53.5537 0 34.5 0C15.4463 0 0 15.4462 0 34.5C0 53.5538 15.4463 69 34.5 69C53.5537 69 69 53.5538 69 34.5Z" stroke="#979797" stroke-opacity="1.000000" stroke-width="0.000000"/>
	<rect id="vuesax/linear/code" width="32.000000" height="32.000000" transform="translate(19.000000 18.000000)" fill="#FFFFFF" fill-opacity="0"/>
	<path id="Vector" d="M31 35.3334C30.1201 35.7734 29.3867 36.4267 28.8401 37.2401C28.5334 37.7067 28.5334 38.2934 28.8401 38.76C29.3867 39.5734 30.1201 40.2267 31 40.6667" stroke="#5454D4" stroke-opacity="1.000000" stroke-width="2.000000" stroke-linejoin="round" stroke-linecap="round"/>
	<path id="Vector" d="M39.28 35.3334C40.1599 35.7734 40.8933 36.4267 41.4399 37.2401C41.7466 37.7067 41.7466 38.2934 41.4399 38.76C40.8933 39.5734 40.1599 40.2267 39.28 40.6667" stroke="#5454D4" stroke-opacity="1.000000" stroke-width="2.000000" stroke-linejoin="round" stroke-linecap="round"/>
	<path id="Vector" d="M39 47.3333C45.6667 47.3333 48.3335 44.6666 48.3335 38L48.3335 30C48.3335 23.3333 45.6667 20.6666 39 20.6666L31 20.6666C24.3335 20.6666 21.6667 23.3333 21.6667 30L21.6667 38C21.6667 44.6666 24.3335 47.3333 31 47.3333L39 47.3333Z" stroke="#5454D4" stroke-opacity="1.000000" stroke-width="2.000000" stroke-linejoin="round"/>
	<path id="Vector" d="M21.9734 28.68L47.6001 28.6666" stroke="#5454D4" stroke-opacity="1.000000" stroke-width="2.000000" stroke-linejoin="round" stroke-linecap="round"/>
	<g opacity="0.000000"/>
</svg>
