<svg width="69.000000" height="69.000000" viewBox="0 0 69 69" fill="none" xmlns="http://www.w3.org/2000/svg" xmlns:xlink="http://www.w3.org/1999/xlink">
	<desc>
			Created with Pixso.
	</desc>
	<defs/>
	<path id="Oval" d="M34.5 69C53.5537 69 69 53.5538 69 34.5C69 15.4462 53.5537 0 34.5 0C15.4463 0 0 15.4462 0 34.5C0 53.5538 15.4463 69 34.5 69Z" fill="#FEDC5A" fill-opacity="0.100000" fill-rule="evenodd"/>
	<path id="Oval" d="M69 34.5C69 15.4462 53.5537 0 34.5 0C15.4463 0 0 15.4462 0 34.5C0 53.5538 15.4463 69 34.5 69C53.5537 69 69 53.5538 69 34.5Z" stroke="#979797" stroke-opacity="0" stroke-width="0.000000"/>
	<rect id="vuesax/linear/align-vertically" width="32.000000" height="32.000000" transform="translate(19.000000 18.000000)" fill="#FFFFFF" fill-opacity="0"/>
	<path id="Vector" d="M27.8 43.6668C25.8 43.6668 25 42.8135 25 40.6935L25 39.3068C25 37.1868 25.8 36.3335 27.8 36.3335L42.2 36.3335C44.2 36.3335 45 37.1868 45 39.3068L45 40.6935C45 42.8135 44.2 43.6668 42.2 43.6668L27.8 43.6668Z" stroke="#FEDC5A" stroke-opacity="1.000000" stroke-width="2.000000" stroke-linejoin="round"/>
	<path id="Vector" d="M30.4668 32.3333C28.4668 32.3333 27.6667 31.48 27.6667 29.36L27.6667 27.9733C27.6667 25.8533 28.4668 25 30.4668 25L39.5334 25C41.5334 25 42.3335 25.8533 42.3335 27.9733L42.3335 29.36C42.3335 31.48 41.5334 32.3333 39.5334 32.3333L30.4668 32.3333Z" stroke="#FEDC5A" stroke-opacity="1.000000" stroke-width="2.000000" stroke-linejoin="round"/>
	<path id="Vector" d="M35 44.1333L35 44.1333" stroke="#FEDC5A" stroke-opacity="1.000000" stroke-width="2.000000" stroke-linejoin="round" stroke-linecap="round"/>
	<path id="Vector" d="M35 32.6665L35 32.6665" stroke="#FEDC5A" stroke-opacity="1.000000" stroke-width="2.000000" stroke-linejoin="round" stroke-linecap="round"/>
	<path id="Vector" d="M35 20.6667L35 20.6667" stroke="#FEDC5A" stroke-opacity="1.000000" stroke-width="2.000000" stroke-linejoin="round" stroke-linecap="round"/>
	<g opacity="0.000000"/>
</svg>
