<svg width="69.000000" height="69.000000" viewBox="0 0 69 69" fill="none" xmlns="http://www.w3.org/2000/svg" xmlns:xlink="http://www.w3.org/1999/xlink">
	<desc>
			Created with Pixso.
	</desc>
	<defs/>
	<path id="Oval" d="M34.5 69C53.5537 69 69 53.5538 69 34.5C69 15.4462 53.5537 0 34.5 0C15.4463 0 0 15.4462 0 34.5C0 53.5538 15.4463 69 34.5 69Z" fill="#F04037" fill-opacity="0.100000" fill-rule="evenodd"/>
	<path id="Oval" d="M69 34.5C69 15.4462 53.5537 0 34.5 0C15.4463 0 0 15.4462 0 34.5C0 53.5538 15.4463 69 34.5 69C53.5537 69 69 53.5538 69 34.5Z" stroke="#979797" stroke-opacity="0" stroke-width="0.000000"/>
	<rect id="vuesax/linear/video-play" width="32.000000" height="32.000000" transform="translate(19.000000 18.000000)" fill="#FFFFFF" fill-opacity="0"/>
	<path id="Vector" d="M48.3335 29.9999C48.3335 23.3331 45.6667 20.6665 39 20.6665L31 20.6665C24.3335 20.6665 21.6667 23.3331 21.6667 29.9999L21.6667 37.9999C21.6667 44.6665 24.3335 47.3331 31 47.3331L39 47.3331C45.6667 47.3331 48.3335 44.6665 48.3335 37.9999L48.3335 29.9999Z" stroke="#F04037" stroke-opacity="1.000000" stroke-width="2.000000" stroke-linejoin="round"/>
	<path id="Vector" d="M22.3601 27.48L47.6401 27.48" stroke="#F04037" stroke-opacity="1.000000" stroke-width="2.000000" stroke-linejoin="round" stroke-linecap="round"/>
	<path id="Vector" d="M30.3601 20.8135L30.3601 20.8135" stroke="#F04037" stroke-opacity="1.000000" stroke-width="2.000000" stroke-linejoin="round" stroke-linecap="round"/>
	<path id="Vector" d="M39.6399 20.8135L39.6399 20.8135" stroke="#F04037" stroke-opacity="1.000000" stroke-width="2.000000" stroke-linejoin="round" stroke-linecap="round"/>
	<path id="Vector" d="M32 35.6666C32 33.6133 33.4534 32.7733 35.2266 33.8L36.6133 34.6L38 35.4C39.7734 36.4266 39.7734 38.1067 38 39.1333L36.6133 39.9333L35.2266 40.7333C33.4534 41.76 32 40.92 32 38.8667L32 37.2666L32 35.6666Z" stroke="#F04037" stroke-opacity="1.000000" stroke-width="2.000000" stroke-linejoin="round"/>
	<g opacity="0.000000"/>
</svg>
