<svg width="69.000000" height="69.000000" viewBox="0 0 69 69" fill="none" xmlns="http://www.w3.org/2000/svg" xmlns:xlink="http://www.w3.org/1999/xlink">
	<desc>
			Created with Pixso.
	</desc>
	<defs/>
	<path id="Oval" d="M34.5 69C53.5537 69 69 53.5538 69 34.5C69 15.4462 53.5537 0 34.5 0C15.4463 0 0 15.4462 0 34.5C0 53.5538 15.4463 69 34.5 69Z" fill="#F04037" fill-opacity="0.100000" fill-rule="evenodd"/>
	<path id="Oval" d="M69 34.5C69 15.4462 53.5537 0 34.5 0C15.4463 0 0 15.4462 0 34.5C0 53.5538 15.4463 69 34.5 69C53.5537 69 69 53.5538 69 34.5Z" stroke="#979797" stroke-opacity="0" stroke-width="0.000000"/>
	<rect id="vuesax/linear/layer" width="32.000000" height="32.000000" transform="translate(19.000000 18.000000)" fill="#FFFFFF" fill-opacity="0"/>
	<path id="Vector" d="M44.2134 25.3866C46.48 26.3866 46.48 28.0399 44.2134 29.0399L36.3467 32.5333C35.4534 32.9333 33.9866 32.9333 33.0933 32.5333L25.2266 29.0399C22.96 28.0399 22.96 26.3866 25.2266 25.3866L33.0933 21.8933C33.9866 21.4933 35.4534 21.4933 36.3467 21.8933L44.2134 25.3866Z" stroke="#F04037" stroke-opacity="1.000000" stroke-width="2.000000" stroke-linejoin="round"/>
	<path id="Vector" d="M23 32.6667C23 33.7867 23.8401 35.0801 24.8667 35.5334L33.9199 39.5601C34.6133 39.8667 35.3999 39.8667 36.0801 39.5601L45.1333 35.5334C46.1599 35.0801 47 33.7867 47 32.6667" stroke="#F04037" stroke-opacity="1.000000" stroke-width="2.000000" stroke-linejoin="round" stroke-linecap="round"/>
	<path id="Vector" d="M23 39.3335C23 40.5735 23.7334 41.6935 24.8667 42.2002L33.9199 46.2268C34.6133 46.5335 35.3999 46.5335 36.0801 46.2268L45.1333 42.2002C46.2666 41.6935 47 40.5735 47 39.3335" stroke="#F04037" stroke-opacity="1.000000" stroke-width="2.000000" stroke-linejoin="round" stroke-linecap="round"/>
	<g opacity="0.000000">
		<path id="Vector" d="M51 18L19 18L19 50L51 50L51 18ZM20.3333 48.6667L20.3333 19.3333L49.6667 19.3333L49.6667 48.6667L20.3333 48.6667Z" fill="#F04037" fill-opacity="1.000000" fill-rule="evenodd"/>
	</g>
</svg>
