<svg width="69.000000" height="69.000000" viewBox="0 0 69 69" fill="none" xmlns="http://www.w3.org/2000/svg" xmlns:xlink="http://www.w3.org/1999/xlink">
	<desc>
			Created with Pixso.
	</desc>
	<defs/>
	<path id="Oval" d="M34.5 69C53.5537 69 69 53.5538 69 34.5C69 15.4462 53.5537 0 34.5 0C15.4463 0 0 15.4462 0 34.5C0 53.5538 15.4463 69 34.5 69Z" fill="#FEDC5A" fill-opacity="0.100000" fill-rule="evenodd"/>
	<path id="Oval" d="M69 34.5C69 15.4462 53.5537 0 34.5 0C15.4463 0 0 15.4462 0 34.5C0 53.5538 15.4463 69 34.5 69C53.5537 69 69 53.5538 69 34.5Z" stroke="#979797" stroke-opacity="0" stroke-width="0.000000"/>
	<rect id="vuesax/linear/code" width="32.000000" height="32.000000" transform="translate(19.000000 19.000000)" fill="#FFFFFF" fill-opacity="0"/>
	<path id="Vector" d="M31 36.3333C30.1201 36.7733 29.3867 37.4266 28.8401 38.2399C28.5334 38.7066 28.5334 39.2932 28.8401 39.7599C29.3867 40.5732 30.1201 41.2266 31 41.6666" stroke="#FEDC5A" stroke-opacity="1.000000" stroke-width="2.000000" stroke-linejoin="round" stroke-linecap="round"/>
	<path id="Vector" d="M39.28 36.3333C40.1599 36.7733 40.8933 37.4266 41.4399 38.2399C41.7466 38.7066 41.7466 39.2932 41.4399 39.7599C40.8933 40.5732 40.1599 41.2266 39.28 41.6666" stroke="#FEDC5A" stroke-opacity="1.000000" stroke-width="2.000000" stroke-linejoin="round" stroke-linecap="round"/>
	<path id="Vector" d="M39 48.3334C45.6667 48.3334 48.3335 45.6667 48.3335 39.0001L48.3335 31.0001C48.3335 24.3334 45.6667 21.6667 39 21.6667L31 21.6667C24.3335 21.6667 21.6667 24.3334 21.6667 31.0001L21.6667 39.0001C21.6667 45.6667 24.3335 48.3334 31 48.3334L39 48.3334Z" stroke="#FEDC5A" stroke-opacity="1.000000" stroke-width="2.000000" stroke-linejoin="round"/>
	<path id="Vector" d="M21.9734 29.6801L47.6001 29.6667" stroke="#FEDC5A" stroke-opacity="1.000000" stroke-width="2.000000" stroke-linejoin="round" stroke-linecap="round"/>
	<g opacity="0.000000"/>
</svg>
