<svg width="69.000000" height="69.000000" viewBox="0 0 69 69" fill="none" xmlns="http://www.w3.org/2000/svg" xmlns:xlink="http://www.w3.org/1999/xlink">
	<desc>
			Created with Pixso.
	</desc>
	<defs/>
	<path id="Oval" d="M34.5 69C53.5537 69 69 53.5538 69 34.5C69 15.4462 53.5537 0 34.5 0C15.4463 0 0 15.4462 0 34.5C0 53.5538 15.4463 69 34.5 69Z" fill="#5454D4" fill-opacity="0.100000" fill-rule="evenodd"/>
	<path id="Oval" d="M69 34.5C69 15.4462 53.5537 0 34.5 0C15.4463 0 0 15.4462 0 34.5C0 53.5538 15.4463 69 34.5 69C53.5537 69 69 53.5538 69 34.5Z" stroke="#979797" stroke-opacity="0" stroke-width="0.000000"/>
	<rect id="vuesax/linear/camera" width="32.000000" height="32.000000" transform="translate(19.000000 18.000000)" fill="#FFFFFF" fill-opacity="0"/>
	<path id="Vector" d="M41.9868 47.3332C45.6667 47.3332 47.1335 45.0798 47.3069 42.3332L48.0002 31.3198C48.1868 28.4398 45.8936 25.9998 43.0002 25.9998C42.1868 25.9998 41.4402 25.5331 41.0669 24.8132L40.1067 22.8798C39.4934 21.6665 37.8936 20.6665 36.5334 20.6665L33.4802 20.6665C32.1067 20.6665 30.5068 21.6665 29.8936 22.8798L28.9336 24.8132C28.5601 25.5331 27.8135 25.9998 27.0002 25.9998C24.1067 25.9998 21.8135 28.4398 22.0002 31.3198L22.6934 42.3332C22.8535 45.0798 24.3335 47.3332 28.0134 47.3332L41.9868 47.3332Z" stroke="#5454D4" stroke-opacity="1.000000" stroke-width="2.000000" stroke-linejoin="round"/>
	<path id="Vector" d="M33 28.6665L37 28.6665" stroke="#5454D4" stroke-opacity="1.000000" stroke-width="2.000000" stroke-linejoin="round" stroke-linecap="round"/>
	<path id="Vector" d="M39.3335 37.6668C39.3335 35.2802 37.3867 33.3335 35 33.3335C32.6135 33.3335 30.6667 35.2802 30.6667 37.6668C30.6667 40.0535 32.6135 42.0002 35 42.0002C37.3867 42.0002 39.3335 40.0535 39.3335 37.6668Z" stroke="#5454D4" stroke-opacity="1.000000" stroke-width="2.000000" stroke-linejoin="round"/>
	<g opacity="0.000000">
		<path id="Vector" d="M51 18L19 18L19 50L51 50L51 18ZM20.3333 48.6666L20.3333 19.3333L49.6667 19.3333L49.6667 48.6666L20.3333 48.6666Z" fill="#5454D4" fill-opacity="1.000000" fill-rule="evenodd"/>
	</g>
</svg>
